<svg width="881" height="651" viewBox="0 0 881 651" fill="none" xmlns="http://www.w3.org/2000/svg">
    <path d="M740.292 0C723.631 0 710.001 13.6302 710.001 30.2915V40.2425L691.574 31.1866C687.821 29.3408 683.271 30.8964 681.425 34.6435C681.419 34.6559 681.413 34.6682 681.407 34.6744C680.53 36.4831 680.401 38.5264 681.049 40.4339C681.703 42.3537 683.061 43.897 684.882 44.7921L709.995 57.1322V167.106L684.024 181.07C682.24 182.027 680.938 183.625 680.351 185.564C679.771 187.502 679.975 189.552 680.938 191.336C682.302 193.879 684.926 195.324 687.629 195.324C688.839 195.324 690.068 195.033 691.204 194.422L709.995 184.323V210.207C709.995 223.133 718.205 234.233 729.662 238.56V617.781C729.662 623.546 734.378 628.263 740.144 628.263C745.91 628.263 750.626 623.546 750.626 617.781V238.665C762.231 234.412 770.571 223.238 770.571 210.207V30.2915C770.577 13.6302 756.947 0 740.292 0ZM684.746 189.292C684.333 188.527 684.246 187.644 684.493 186.811C684.746 185.977 685.302 185.292 686.074 184.879L714.26 169.724C714.748 169.458 715.279 169.335 715.797 169.335C716.952 169.335 718.069 169.946 718.662 171.026C718.668 171.032 718.668 171.045 718.674 171.051C719.087 171.816 719.174 172.699 718.927 173.532C718.674 174.366 718.118 175.051 717.347 175.465L689.154 190.62C687.58 191.465 685.598 190.873 684.746 189.292ZM685.148 39.045C684.864 38.2178 684.926 37.335 685.308 36.5572C685.314 36.551 685.314 36.5387 685.321 36.5325C686.117 34.9337 688.068 34.2793 689.673 35.0695L718.396 49.1812C719.18 49.5639 719.76 50.2306 720.044 51.0578C720.322 51.8727 720.273 52.7493 719.896 53.5271C719.89 53.5333 719.89 53.5456 719.884 53.5518C719.501 54.3358 718.834 54.916 718.013 55.2C717.192 55.4778 716.303 55.4222 715.526 55.0395L686.802 40.9216C686.012 40.5327 685.426 39.866 685.148 39.045ZM734.249 211.707C727.267 211.707 721.606 199.706 721.606 184.903C721.606 182.014 721.822 179.236 722.223 176.631C722.581 176.057 722.872 175.44 723.069 174.773C723.396 173.687 723.464 172.569 723.304 171.483C725.489 163.483 729.57 158.1 734.249 158.1C741.231 158.1 746.891 170.1 746.891 184.903C746.891 199.706 741.231 211.707 734.249 211.707ZM734.249 146.735C727.267 146.735 721.606 134.734 721.606 119.931C721.606 105.128 727.267 93.1276 734.249 93.1276C741.231 93.1276 746.891 105.128 746.891 119.931C746.891 134.734 741.231 146.735 734.249 146.735ZM734.249 81.7567C727.755 81.7567 722.409 71.3797 721.693 58.0211C722.544 57.3421 723.248 56.484 723.748 55.484C723.754 55.4716 723.761 55.4593 723.767 55.4469C724.662 53.632 724.792 51.5764 724.137 49.6565C723.742 48.496 723.088 47.4774 722.23 46.6502C723.878 35.9152 728.637 28.1494 734.249 28.1494C741.231 28.1494 746.891 40.1499 746.891 54.9531C746.891 69.7562 741.231 81.7567 734.249 81.7567Z" fill="#111117"/>
    <path d="M734.249 28.1556C728.632 28.1556 723.878 35.9214 722.23 46.6564C723.088 47.4836 723.742 48.5022 724.137 49.6627C724.792 51.5764 724.662 53.6382 723.767 55.4531C723.761 55.4654 723.755 55.4778 723.749 55.4901C723.249 56.4964 722.545 57.3482 721.693 58.0273C722.409 71.3859 727.761 81.7629 734.249 81.7629C741.231 81.7629 746.892 69.7624 746.892 54.9592C746.892 40.1561 741.231 28.1556 734.249 28.1556Z" fill="#F91515"/>
    <path d="M734.249 146.735C741.231 146.735 746.892 134.735 746.892 119.931C746.892 105.128 741.231 93.1276 734.249 93.1276C727.267 93.1276 721.606 105.128 721.606 119.931C721.606 134.735 727.267 146.735 734.249 146.735Z" fill="#F91515"/>
    <path d="M734.249 158.106C729.576 158.106 725.496 163.489 723.304 171.489C723.465 172.576 723.397 173.693 723.069 174.779C722.872 175.446 722.582 176.063 722.224 176.638C721.823 179.243 721.606 182.02 721.606 184.91C721.606 199.713 727.267 211.713 734.249 211.713C741.231 211.713 746.892 199.713 746.892 184.91C746.892 170.1 741.231 158.106 734.249 158.106Z" fill="#F91515"/>
    <path d="M702.933 115.425C703.538 114.795 703.859 113.974 703.847 113.104V113.098C703.816 111.32 702.359 109.9 700.587 109.9C700.569 109.9 700.55 109.9 700.525 109.9L666.104 110.53C664.308 110.56 662.869 112.048 662.906 113.851C662.925 114.721 663.277 115.536 663.9 116.141C664.53 116.746 665.351 117.073 666.221 117.055L700.643 116.425C701.519 116.406 702.328 116.048 702.933 115.425Z" fill="white"/>
    <g id="path-2">
        <path d="M706.044 118.425C707.451 116.968 708.204 115.048 708.167 113.067V113.061C708.167 113.048 708.167 113.036 708.167 113.024C708.093 108.894 704.704 105.579 700.587 105.579C700.537 105.579 700.494 105.579 700.445 105.579L666.024 106.208C661.844 106.283 658.505 109.746 658.585 113.925C658.622 115.95 659.443 117.839 660.9 119.246C662.326 120.617 664.184 121.37 666.159 121.37C666.209 121.37 666.252 121.37 666.301 121.37L700.723 120.74C702.747 120.703 704.636 119.882 706.044 118.425ZM663.906 116.135C663.283 115.53 662.925 114.721 662.912 113.845C662.881 112.048 664.314 110.56 666.11 110.523L700.531 109.894C700.55 109.894 700.574 109.894 700.593 109.894C702.365 109.894 703.821 111.32 703.852 113.091V113.098C703.871 113.968 703.544 114.795 702.939 115.419C702.334 116.048 701.525 116.4 700.649 116.413L666.227 117.042C665.357 117.067 664.53 116.74 663.906 116.135Z" fill="#111117"/>
        <path d="M717.353 175.465C718.119 175.051 718.681 174.366 718.934 173.532C719.187 172.699 719.094 171.816 718.681 171.051C718.674 171.045 718.674 171.032 718.668 171.026C718.076 169.946 716.958 169.335 715.804 169.335C715.285 169.335 714.755 169.458 714.267 169.724L686.08 184.879C685.315 185.292 684.753 185.977 684.5 186.811C684.247 187.644 684.34 188.527 684.753 189.292C685.605 190.873 687.587 191.472 689.167 190.62L717.353 175.465Z" fill="white"/>
        <path d="M715.52 55.0333C716.304 55.4161 717.186 55.4716 718.008 55.1938C718.835 54.9099 719.495 54.3296 719.878 53.5456C719.884 53.5394 719.884 53.5271 719.89 53.5209C720.267 52.7431 720.316 51.8727 720.038 51.0517C719.761 50.2306 719.174 49.5639 718.39 49.175L689.667 35.0633C688.062 34.2731 686.111 34.9337 685.315 36.5263C685.309 36.5325 685.309 36.5448 685.302 36.551C684.92 37.335 684.864 38.2178 685.142 39.0388C685.42 39.8598 686.006 40.5265 686.79 40.9154L715.52 55.0333Z" fill="white"/>
    </g>
    
    <g id="path-1">
        <path d="M435.261 169.384C435.261 169.193 435.254 169.094 435.254 169.094C435.261 169.193 435.261 169.285 435.261 169.384Z" fill="white"/>
        <path d="M420.21 194.62C423.359 189.768 425.569 183.909 426.871 179.848C434.335 156.55 422.241 136.574 410.778 123.913C400.092 112.11 379.807 99.2946 343.843 105.239C332.886 107.048 322.904 109.548 314.175 112.666C303.86 116.351 292.087 121.351 283.019 130.518C279.784 133.79 277.223 137.698 275.605 141.833C271.315 152.785 272.574 166.026 278.97 177.249C279.476 178.138 280.031 179.039 280.624 179.928C287.093 189.638 296.149 198.324 307.539 205.738C320.391 213.232 334.534 217.423 344.145 219.621C346.275 220.109 347.973 221.812 348.467 223.961C351.417 236.77 358.523 247.622 369.572 256.215C370.455 256.907 371.233 256.345 371.449 256.16C371.714 255.931 372.276 255.295 371.764 254.388C367.116 246.153 364.257 236.634 364.109 228.93C364.078 227.368 364.671 225.893 365.782 224.782C366.881 223.677 368.406 223.059 369.968 223.072C373.937 223.121 376.196 222.812 377.388 222.541C395.783 218.38 411.395 208.201 420.21 194.62ZM347.22 197.99C346.88 198.737 346.436 199.392 345.88 199.947C345.324 200.503 344.664 200.941 343.898 201.262C343.133 201.583 342.318 201.744 341.46 201.744C340.602 201.744 339.806 201.583 339.077 201.262C338.343 200.941 337.694 200.503 337.12 199.947C336.546 199.392 336.102 198.743 335.781 197.99C335.46 197.237 335.299 196.435 335.299 195.577C335.299 194.719 335.46 193.922 335.781 193.194C336.102 192.459 336.546 191.811 337.12 191.237C337.688 190.669 338.343 190.218 339.077 189.897C339.812 189.576 340.602 189.416 341.46 189.416C342.318 189.416 343.127 189.576 343.898 189.897C344.664 190.218 345.324 190.669 345.88 191.237C346.436 191.811 346.88 192.459 347.22 193.194C347.559 193.928 347.726 194.719 347.726 195.577C347.732 196.435 347.559 197.243 347.22 197.99ZM346.337 152.346C345.763 162.421 345.423 172.329 345.318 182.082L338.194 182.298C337.941 172.477 337.614 162.513 337.201 152.402C336.787 142.296 336.318 132.327 335.781 122.505L348.695 122.401C347.695 132.29 346.911 142.272 346.337 152.346ZM369.054 197.99C368.733 198.737 368.295 199.392 367.739 199.947C367.183 200.503 366.535 200.941 365.782 201.262C365.029 201.583 364.227 201.744 363.368 201.744C362.51 201.744 361.708 201.583 360.955 201.262C360.208 200.941 359.541 200.503 358.973 199.947C358.399 199.392 357.948 198.743 357.609 197.99C357.269 197.237 357.103 196.435 357.103 195.577C357.103 194.719 357.269 193.922 357.609 193.194C357.948 192.459 358.405 191.811 358.973 191.237C359.547 190.669 360.208 190.218 360.955 189.897C361.708 189.576 362.51 189.416 363.368 189.416C364.227 189.416 365.029 189.576 365.782 189.897C366.529 190.218 367.183 190.669 367.739 191.237C368.295 191.811 368.733 192.459 369.054 193.194C369.375 193.928 369.535 194.719 369.535 195.577C369.535 196.435 369.375 197.243 369.054 197.99ZM372.671 166.946C371.369 168.964 370.134 171.224 368.974 173.724C367.813 176.224 366.893 179.187 366.214 182.619H358.979C358.979 182.335 358.961 182.082 358.924 181.866C358.887 181.65 358.868 181.403 358.868 181.119C358.868 178.866 359.09 176.773 359.535 174.823C359.979 172.878 360.492 171.15 361.06 169.65C361.702 167.933 362.436 166.347 363.257 164.884C364.331 163.063 365.492 161.31 366.739 159.631C367.986 157.952 369.14 156.248 370.196 154.513C371.252 152.778 372.134 150.97 372.85 149.075C373.566 147.179 373.924 145.13 373.924 142.914C373.924 140.914 373.708 139.216 373.282 137.821C372.857 136.426 372.282 135.296 371.566 134.42C370.85 133.543 370.023 132.913 369.072 132.518C368.128 132.123 367.134 131.926 366.097 131.926C365.134 131.926 364.159 132.061 363.177 132.327C362.196 132.592 361.233 132.969 360.282 133.45C359.337 133.932 358.436 134.487 357.578 135.111C356.72 135.734 355.955 136.426 355.275 137.173L353.078 128.759C354.794 127.08 356.516 125.777 358.251 124.845C359.986 123.919 361.554 123.228 362.967 122.783C364.375 122.339 365.554 122.067 366.504 121.981C367.449 121.894 368.011 121.845 368.19 121.845C370.332 121.845 372.363 122.271 374.27 123.129C376.178 123.987 377.844 125.222 379.252 126.827C380.665 128.432 381.789 130.382 382.629 132.666C383.468 134.95 383.888 137.525 383.888 140.383C383.888 143.704 383.548 146.581 382.869 149.007C382.19 151.439 381.314 153.643 380.246 155.624C379.172 157.606 377.968 159.482 376.628 161.248C375.295 163.032 373.974 164.927 372.671 166.946Z" fill="white"/>
        <path d="M380.573 101.622C369.251 98.955 356.658 98.739 343.139 100.974C331.928 102.826 321.693 105.394 312.718 108.597C301.939 112.443 289.624 117.697 279.945 127.481C276.303 131.166 273.407 135.586 271.574 140.259C266.814 152.414 268.173 167.038 275.204 179.385C275.753 180.354 276.364 181.341 277.012 182.323C283.821 192.539 293.309 201.645 305.211 209.392C305.242 209.411 305.273 209.429 305.298 209.448C318.632 217.232 333.25 221.572 343.164 223.837C343.694 223.961 344.114 224.387 344.238 224.936C347.374 238.548 355.213 250.542 366.899 259.629C367.961 260.456 369.208 260.864 370.455 260.864C371.801 260.864 373.153 260.382 374.251 259.431C376.381 257.592 376.887 254.715 375.511 252.264C371.196 244.622 368.547 235.869 368.418 228.85C368.412 228.467 368.56 228.103 368.831 227.825C369.115 227.541 369.504 227.399 369.899 227.387C373.43 227.43 376.264 227.22 378.332 226.751C397.826 222.337 414.407 211.472 423.828 196.959C427.235 191.706 429.6 185.465 430.976 181.156C437.384 161.168 431.501 140.364 413.975 121.005C405.185 111.295 393.944 104.77 380.573 101.622ZM369.961 223.084C368.399 223.072 366.874 223.689 365.776 224.794C364.671 225.905 364.078 227.381 364.103 228.942C364.245 236.646 367.109 246.159 371.757 254.4C372.27 255.308 371.708 255.937 371.443 256.172C371.227 256.357 370.449 256.919 369.566 256.228C358.516 247.635 351.417 236.782 348.46 223.973C347.966 221.825 346.269 220.121 344.139 219.633C334.527 217.436 320.385 213.238 307.532 205.75C296.143 198.336 287.087 189.65 280.618 179.94C280.025 179.045 279.469 178.144 278.963 177.261C272.568 166.038 271.315 152.797 275.599 141.846C277.216 137.71 279.784 133.796 283.013 130.531C292.081 121.37 303.853 116.363 314.168 112.678C322.897 109.56 332.879 107.06 343.836 105.252C379.801 99.3069 400.092 112.122 410.771 123.925C422.235 136.586 434.328 156.563 426.865 179.86C425.562 183.922 423.352 189.78 420.204 194.632C411.389 208.213 395.777 218.392 377.375 222.566C376.19 222.819 373.937 223.127 369.961 223.084Z" fill="#111117"/>
        <path d="M337.201 152.396C337.608 162.507 337.941 172.471 338.194 182.292L345.318 182.076C345.423 172.323 345.763 162.415 346.337 152.34C346.905 142.266 347.695 132.284 348.695 122.388L335.781 122.493C336.318 132.327 336.793 142.29 337.201 152.396Z" fill="#111117"/>
        <path d="M345.88 191.243C345.324 190.675 344.663 190.225 343.898 189.904C343.133 189.583 342.318 189.422 341.46 189.422C340.602 189.422 339.805 189.583 339.077 189.904C338.342 190.225 337.694 190.675 337.12 191.243C336.546 191.817 336.101 192.465 335.78 193.2C335.459 193.935 335.299 194.725 335.299 195.583C335.299 196.441 335.459 197.243 335.78 197.997C336.101 198.743 336.546 199.398 337.12 199.953C337.688 200.509 338.342 200.947 339.077 201.268C339.811 201.589 340.602 201.75 341.46 201.75C342.318 201.75 343.126 201.589 343.898 201.268C344.663 200.947 345.324 200.509 345.88 199.953C346.435 199.398 346.88 198.75 347.219 197.997C347.559 197.243 347.725 196.441 347.725 195.583C347.725 194.725 347.559 193.928 347.219 193.2C346.88 192.465 346.435 191.811 345.88 191.243Z" fill="#111117"/>
        <path d="M382.875 149.019C383.554 146.593 383.894 143.716 383.894 140.395C383.894 137.537 383.474 134.969 382.635 132.679C381.795 130.395 380.672 128.444 379.258 126.839C377.844 125.234 376.184 123.999 374.276 123.141C372.363 122.283 370.338 121.857 368.196 121.857C368.017 121.857 367.455 121.901 366.511 121.993C365.566 122.086 364.387 122.351 362.973 122.796C361.56 123.24 359.992 123.931 358.257 124.857C356.522 125.79 354.8 127.092 353.084 128.771L355.282 137.185C355.961 136.438 356.726 135.747 357.584 135.123C358.442 134.5 359.344 133.944 360.288 133.463C361.233 132.981 362.196 132.605 363.183 132.339C364.165 132.074 365.14 131.938 366.103 131.938C367.14 131.938 368.128 132.136 369.079 132.531C370.023 132.926 370.856 133.555 371.572 134.432C372.289 135.309 372.856 136.438 373.289 137.833C373.715 139.228 373.931 140.926 373.931 142.926C373.931 145.142 373.573 147.192 372.856 149.087C372.14 150.982 371.258 152.791 370.202 154.525C369.146 156.26 367.998 157.964 366.745 159.643C365.492 161.322 364.331 163.069 363.263 164.896C362.442 166.359 361.708 167.952 361.066 169.662C360.492 171.162 359.986 172.884 359.541 174.835C359.097 176.78 358.874 178.878 358.874 181.132C358.874 181.416 358.893 181.669 358.93 181.878C358.967 182.095 358.986 182.341 358.986 182.632H366.22C366.899 179.206 367.819 176.236 368.98 173.736C370.14 171.236 371.375 168.977 372.677 166.958C373.98 164.939 375.301 163.044 376.641 161.279C377.98 159.513 379.184 157.637 380.258 155.655C381.32 153.655 382.196 151.451 382.875 149.019Z" fill="#111117"/>
        <path d="M367.739 191.243C367.183 190.675 366.535 190.225 365.782 189.904C365.029 189.583 364.226 189.422 363.368 189.422C362.51 189.422 361.708 189.583 360.955 189.904C360.208 190.225 359.541 190.675 358.973 191.243C358.399 191.817 357.948 192.465 357.609 193.2C357.269 193.935 357.103 194.725 357.103 195.583C357.103 196.441 357.269 197.243 357.609 197.997C357.948 198.743 358.405 199.398 358.973 199.953C359.547 200.509 360.208 200.947 360.955 201.268C361.708 201.589 362.51 201.75 363.368 201.75C364.226 201.75 365.029 201.589 365.782 201.268C366.529 200.947 367.183 200.509 367.739 199.953C368.294 199.398 368.733 198.75 369.054 197.997C369.375 197.243 369.535 196.441 369.535 195.583C369.535 194.725 369.375 193.928 369.054 193.2C368.733 192.465 368.294 191.811 367.739 191.243Z" fill="#111117"/>
    </g>
    <path opacity="0.16" d="M845.482 643.245C845.482 647.294 835.766 650.572 823.778 650.572H67.0523C55.0641 650.572 45.3477 647.288 45.3477 643.245C45.3477 639.195 55.0641 635.917 67.0523 635.917H823.778C835.766 635.911 845.482 639.195 845.482 643.245Z" fill="#111117"/>
    <path d="M613.701 473.157C570.433 463.533 516.665 457.027 463.805 452.625C463.904 453.156 463.965 453.706 463.965 454.267C463.965 459.132 460.008 463.089 455.144 463.089H421.612C416.747 463.089 412.79 459.132 412.79 454.267C412.79 452.317 413.432 450.52 414.506 449.063C407.753 448.644 401.08 448.255 394.512 447.897C397.574 466.626 401.716 495.602 404.129 527.579H637.479C637.831 494.22 634.516 453.255 618.559 432.124C618.417 432.001 617.818 431.482 616.812 430.637C616.756 433.069 616.244 435.334 615.268 437.291C615.386 440.798 614.447 443.983 612.305 446.18C607.824 450.786 597.829 453.638 588.477 452.878C611.349 462.366 613.701 473.157 613.701 473.157Z" fill="#EC2526"/>
    <path d="M390.647 426.155C390.764 426.748 391.666 431.285 392.974 438.804C449.31 437.773 507.584 437.834 538.049 441.279C553.105 442.977 565.167 445.409 574.853 448.181C571.951 445.977 569.766 442.946 568.76 438.946C566.963 436.612 565.723 433.884 565.124 430.809C564.815 429.204 564.649 427.649 564.63 426.155H463.138H406.351H390.647Z" fill="#EC2526"/>
    <path d="M20.6864 442.538C20.3469 445.18 19.9641 448.279 19.5443 451.773H43.1133C49.2494 451.773 54.2373 456.767 54.2373 462.903V478.558C54.2373 484.695 49.2432 489.682 43.1133 489.682H14.6305C14.6182 489.695 14.5997 489.713 14.5873 489.726C14.4947 489.812 5.30297 498.887 5.00049 510.893C5.67336 512.004 8.15495 515.474 14.575 518.931C21.8963 522.875 35.9093 527.573 61.0586 527.573H87.6338C99.9121 500.893 116.833 488.534 129.031 482.849C142.649 476.503 153.507 476.879 153.618 476.879L156.155 476.984L153.68 477.546C116.752 485.935 100.955 515.276 95.8626 527.567H118.086C124.123 514.764 132.457 504.597 142.865 497.325C155.859 488.244 172.187 483.645 191.392 483.645C210.59 483.645 227.029 488.244 240.252 497.312C250.851 504.584 259.444 514.758 265.821 527.567H290.001C289.501 526.332 288.988 525.098 288.458 523.851C276.994 496.96 256.462 461.891 223.745 447.551C196.021 435.402 180.132 419.364 176.514 399.888C172.31 377.233 195.528 367.794 212.479 360.905L214.695 360.004C226.757 355.065 239.992 351.164 255.166 348.059C288.97 341.151 324.589 341.268 356.016 341.373L364.276 341.398C397.876 341.497 432.618 341.596 466.058 348.312C509.603 357.065 554.439 383.974 584.23 404.87C584.594 404.79 584.841 404.747 584.934 404.734C587.804 404.209 590.502 404.129 593.014 404.382C582.304 396.82 571.211 389.629 559.865 382.925C515.215 356.547 465.749 340.713 416.809 337.139C404.142 336.213 390.277 335.879 373.177 336.101C363.06 336.231 352.658 336.54 343.479 336.811L342.448 336.842C290.291 338.379 225.381 340.299 179.86 368.64C123.938 403.462 108.906 412.821 80.2137 415.426C52.0211 417.994 22.526 428.13 20.6864 442.538ZM160.409 410.055C164.699 431.846 191.392 440.507 191.392 440.507C138.161 440.507 84.93 440.501 31.6992 440.483C32.5573 429.278 44.8047 429.136 54.4471 427.241C67.5403 424.667 80.5718 421.871 93.6649 419.315C98.5849 418.364 159.483 405.592 160.409 410.055Z" fill="#EC2526"/>
    <path d="M614.805 421.013C616.058 423.951 616.719 426.908 616.793 429.686C618.194 430.859 618.972 431.538 619.046 431.6L619.095 431.655C634.652 452.212 638.109 491.3 638.269 520.468C638.282 522.863 638.275 525.233 638.251 527.567H656.393C668.672 500.887 685.592 488.528 697.79 482.843C711.414 476.497 722.267 476.867 722.378 476.873L724.915 476.978L722.44 477.54C685.512 485.935 669.715 515.27 664.622 527.561H681.456C687.611 515.171 695.624 505.337 705.291 498.306C717.371 489.522 732.131 485.065 749.145 485.065C766.151 485.065 781.041 489.516 793.406 498.288C803.307 505.313 811.647 515.159 818.209 527.554H845.204C845.241 527.554 845.278 527.554 845.309 527.554C854.729 527.962 863.872 527.53 868.286 526.591C864.841 523.264 863.674 517.264 862.458 511.004C861.261 504.85 859.909 497.868 856.334 492.516C856.038 492.071 855.729 491.596 855.402 491.102C846.42 477.423 825.389 445.378 720.742 437.199C707.599 436.174 694.241 435.094 681.327 434.056C666.616 432.871 651.412 431.643 636.467 430.488C626.293 429.717 620.626 425.803 614.805 421.013ZM778.806 459.706C779.306 459.212 779.973 458.946 780.683 458.965C797.122 459.428 820.037 463.231 835.852 478.688C845.47 488.09 847.865 497.312 847.958 497.701C848.143 498.454 847.982 499.245 847.519 499.862C847.05 500.479 846.334 500.85 845.556 500.874C843.964 500.924 842.389 500.948 840.846 500.948C818.018 500.948 800.875 495.652 789.844 485.182C778.461 474.379 778.066 462.095 778.053 461.576C778.041 460.879 778.312 460.2 778.806 459.706ZM697.006 438.223C746.28 440.575 770.213 444.143 770.213 444.143C770.213 444.143 706.655 440.514 674.913 441.532C643.171 442.551 631.139 432.297 631.139 432.297C631.139 432.297 647.739 435.871 697.006 438.223Z" fill="#EC2526"/>
    <path d="M364.275 342.12L356.016 342.096C324.625 341.991 289.044 341.873 255.314 348.763C240.183 351.855 226.985 355.744 214.966 360.664L212.75 361.566C196.027 368.362 173.119 377.677 177.218 399.759C180.792 418.988 196.539 434.847 224.034 446.897C256.974 461.329 277.611 496.572 289.118 523.585C289.686 524.919 290.235 526.246 290.772 527.567H403.413C400.999 495.553 396.845 466.546 393.783 447.847C313.162 443.458 248.492 443.409 248.492 443.409C248.492 443.409 318.6 440.18 392.252 438.822C390.881 430.982 389.968 426.414 389.931 426.229L390.283 426.155H373.14H314.18H252.536H228.17C228.17 426.155 191.749 421.155 191.391 394.018C191.033 366.881 271.734 355.812 271.734 355.812C271.734 355.812 277.728 354.75 292.717 353.979C305.581 353.318 325.07 352.874 353.09 353.503C355.207 353.553 357.361 353.602 359.578 353.664H384.931C384.931 353.664 384.931 353.664 446.705 353.664C462.057 353.664 479.058 358.139 495.948 364.868C525.542 376.659 554.784 395.363 574.143 409.006C577.655 406.747 581.26 405.598 583.297 405.086C553.568 384.289 509.097 357.689 465.916 349.016C432.544 342.312 397.839 342.213 364.275 342.12ZM265.499 445.44H299.032C303.896 445.44 307.853 449.397 307.853 454.261C307.853 459.125 303.896 463.082 299.032 463.082H265.499C260.635 463.082 256.678 459.125 256.678 454.261C256.678 449.397 260.635 445.44 265.499 445.44Z" fill="#EC2526"/>
    <path d="M49.1259 478.558V462.903C49.1259 459.588 46.4282 456.891 43.1133 456.891H24.7791C24.2668 463.008 22.9581 478.447 22.2173 484.571H43.1071C46.4282 484.571 49.1259 481.873 49.1259 478.558Z" fill="white"/>
    <path d="M392.98 438.81C393.443 441.477 393.962 444.52 394.511 447.89C401.08 448.248 407.753 448.637 414.506 449.057C416.111 446.872 418.698 445.44 421.611 445.44H455.144C459.446 445.44 463.033 448.539 463.805 452.619C516.665 457.02 570.433 463.533 613.7 473.151C613.7 473.151 611.348 462.36 588.471 452.866C583.415 452.459 578.557 450.989 574.853 448.174C565.173 445.403 553.105 442.977 538.049 441.273C507.584 437.841 449.31 437.773 392.98 438.81Z" fill="white"/>
    <path d="M393.783 447.847C393.233 444.489 392.721 441.464 392.258 438.816C318.607 440.18 248.499 443.403 248.499 443.403C248.499 443.403 313.156 443.458 393.783 447.847Z" fill="white"/>
    <path d="M191.749 532.752C167.563 532.752 147.883 552.432 147.883 576.618C147.883 600.805 167.563 620.478 191.749 620.478C215.936 620.478 235.609 600.798 235.609 576.618C235.609 552.432 215.936 532.752 191.749 532.752ZM191.749 591.317C183.644 591.317 177.051 584.724 177.051 576.618C177.051 568.513 183.644 561.92 191.749 561.92C199.855 561.92 206.448 568.513 206.448 576.618C206.448 584.724 199.855 591.317 191.749 591.317Z" fill="white"/>
    <path d="M201.341 576.88C201.473 571.587 197.292 567.188 192.002 567.056C186.713 566.924 182.317 571.108 182.185 576.401C182.053 581.694 186.233 586.092 191.523 586.224C196.813 586.356 201.208 582.173 201.341 576.88Z" fill="white"/>
    <path d="M191.749 561.92C183.644 561.92 177.051 568.513 177.051 576.618C177.051 584.724 183.644 591.317 191.749 591.317C199.855 591.317 206.448 584.724 206.448 576.618C206.448 568.513 199.855 561.92 191.749 561.92ZM182.163 576.618C182.163 571.334 186.459 567.032 191.743 567.032C197.027 567.032 201.324 571.334 201.324 576.618C201.324 581.903 197.027 586.205 191.743 586.205C186.465 586.205 182.163 581.903 182.163 576.618Z" fill="#111117"/>
    <path d="M750.571 535.123C726.384 535.123 706.705 554.803 706.705 578.983C706.705 603.169 726.384 622.849 750.571 622.849C774.757 622.849 794.437 603.169 794.437 578.983C794.431 554.796 774.757 535.123 750.571 535.123ZM750.935 594.885C742.83 594.885 736.237 588.292 736.237 580.186C736.237 572.081 742.83 565.488 750.935 565.488C759.04 565.488 765.633 572.081 765.633 580.186C765.627 588.292 759.034 594.885 750.935 594.885Z" fill="white"/>
    <path d="M455.144 450.557H421.611C419.568 450.557 417.901 452.218 417.901 454.267C417.901 456.311 419.562 457.977 421.611 457.977H455.144C457.187 457.977 458.854 456.317 458.854 454.267C458.848 452.218 457.187 450.557 455.144 450.557Z" fill="white"/>
    <path d="M421.611 463.082H455.144C460.008 463.082 463.965 459.125 463.965 454.261C463.965 453.699 463.91 453.156 463.805 452.619C463.033 448.539 459.446 445.44 455.144 445.44H421.611C418.698 445.44 416.111 446.866 414.506 449.057C413.432 450.52 412.79 452.317 412.79 454.261C412.79 459.125 416.747 463.082 421.611 463.082ZM458.848 454.261C458.848 456.304 457.187 457.971 455.138 457.971H421.605C419.562 457.971 417.895 456.311 417.895 454.261C417.895 452.218 419.556 450.551 421.605 450.551H455.138C457.187 450.557 458.848 452.218 458.848 454.261Z" fill="#111117"/>
    <path d="M265.5 457.971H299.032C301.075 457.971 302.742 456.311 302.742 454.261C302.742 452.218 301.081 450.551 299.032 450.551H265.5C263.456 450.551 261.79 452.212 261.79 454.261C261.796 456.304 263.456 457.971 265.5 457.971Z" fill="white"/>
    <path d="M265.5 463.082H299.032C303.896 463.082 307.853 459.125 307.853 454.261C307.853 449.397 303.896 445.44 299.032 445.44H265.5C260.635 445.44 256.678 449.397 256.678 454.261C256.678 459.125 260.635 463.082 265.5 463.082ZM265.5 450.557H299.032C301.075 450.557 302.742 452.218 302.742 454.267C302.742 456.311 301.081 457.977 299.032 457.977H265.5C263.456 457.977 261.79 456.317 261.79 454.267C261.796 452.218 263.456 450.557 265.5 450.557Z" fill="#111117"/>
    <path d="M841.834 495.831C840.414 492.633 837.507 487.386 832.043 482.114C820.987 471.453 804.264 465.28 783.547 464.194C784.226 467.539 786.085 473.466 791.184 479.213C800.968 490.257 818.432 495.967 841.834 495.831Z" fill="white"/>
    <path d="M789.844 485.182C800.876 495.652 818.018 500.948 840.847 500.948C842.39 500.948 843.964 500.924 845.557 500.874C846.328 500.85 847.051 500.479 847.52 499.862C847.989 499.245 848.149 498.448 847.958 497.701C847.859 497.312 845.47 488.09 835.852 478.688C820.037 463.231 797.122 459.428 780.683 458.965C779.973 458.946 779.307 459.212 778.807 459.706C778.313 460.2 778.035 460.872 778.054 461.576C778.066 462.095 778.467 474.385 789.844 485.182ZM832.044 482.114C837.507 487.386 840.421 492.633 841.834 495.831C818.432 495.967 800.968 490.257 791.184 479.219C786.085 473.466 784.221 467.546 783.548 464.2C804.265 465.286 820.988 471.453 832.044 482.114Z" fill="#111117"/>
    <path d="M271.734 355.812C271.734 355.812 191.033 366.881 191.391 394.018C191.749 421.155 228.171 426.155 228.171 426.155H252.536L292.711 353.979C277.729 354.75 271.734 355.812 271.734 355.812Z" fill="#111117"/>
    <path d="M876.305 526.573C875.996 526.172 875.663 525.795 875.305 525.449C874.045 524.215 872.397 523.752 871.23 522.449C868.514 519.412 868.094 513.869 867.354 510.072C866.07 503.455 864.613 495.954 860.483 489.763C860.193 489.324 859.89 488.868 859.569 488.38C850.186 474.083 828.21 440.612 721.125 432.242C707.988 431.217 694.636 430.137 681.722 429.099C667.011 427.914 651.795 426.686 636.849 425.531C627.028 424.772 622.343 420.84 615.855 415.401C614.027 413.87 612.145 412.29 609.978 410.642C594.922 399.166 578.909 388.4 562.389 378.64C517.079 351.874 466.86 335.805 417.161 332.175C404.345 331.237 390.345 330.904 373.097 331.126C362.936 331.256 352.51 331.564 343.318 331.836L342.287 331.867C289.531 333.422 223.874 335.361 177.212 364.418C119.481 400.364 106.338 408.055 79.7505 410.469C49.5269 413.216 18.0132 424.007 15.7229 441.921C15.3093 445.15 14.8278 449.051 14.2969 453.52C14.2414 453.687 14.1982 453.86 14.1735 454.039C12.4944 468.089 10.7289 483.836 10.3955 486.849C10.3955 486.861 10.3955 486.867 10.3955 486.88C7.92628 489.534 0 499.029 0 511.498C0 511.832 0.0679043 512.165 0.19754 512.474C0.27779 512.671 0.845717 513.918 2.35813 515.702C3.04335 523.801 6.03113 540.753 18.6984 557.185C37.0078 580.933 67.5956 593.669 109.61 595.033L109.999 595.045C109.999 595.045 116.598 591.724 124.357 588.989C130.185 620.923 158.137 645.128 191.755 645.128C226.473 645.128 255.153 619.305 259.654 585.816C267.061 588.15 275.66 595.033 275.66 595.033H670.234C670.234 595.033 675.944 592.699 683.098 590.897C688.741 623.053 716.804 647.492 750.577 647.492C784.486 647.492 812.635 622.855 818.117 590.508C822.611 591.712 831.654 594.681 831.654 594.693L867.434 595.033L867.514 594.99C867.638 594.916 870.564 593.199 873.521 588.674C876.231 584.52 879.465 577.118 879.465 565.414C879.465 560.124 879.663 555.278 879.842 551.006C880.052 545.944 880.484 540.722 879.829 535.672C879.447 532.74 878.299 529.141 876.305 526.573ZM611.768 429.056C612.015 432.235 611.28 435.038 609.546 436.822C604.867 441.637 591.965 444.742 581.711 441.68C577.162 440.322 571.445 437.174 570.032 429.859C569.106 425.068 569.791 420.969 572.081 417.679C576.526 411.278 585.637 409.679 585.767 409.66C585.779 409.66 585.798 409.654 585.81 409.654C593.138 408.321 599.064 410.426 603.379 413.895C611.015 418.494 611.811 425.902 611.768 429.056ZM191.749 620.485C167.563 620.485 147.883 600.805 147.883 576.625C147.883 552.438 167.563 532.758 191.749 532.758C215.936 532.758 235.609 552.438 235.609 576.625C235.609 600.805 215.936 620.485 191.749 620.485ZM265.814 527.567C259.444 514.758 250.845 504.584 240.245 497.312C227.022 488.244 210.583 483.645 191.385 483.645C172.181 483.645 155.853 488.25 142.858 497.325C132.45 504.597 124.117 514.764 118.079 527.567H95.8561C100.949 515.276 116.746 485.935 153.674 477.546L156.149 476.984L153.612 476.879C153.501 476.873 142.648 476.503 129.024 482.849C116.826 488.528 99.8995 500.893 87.6274 527.573H61.0583C35.909 527.573 21.9022 522.875 14.5747 518.931C8.15469 515.474 5.67309 512.004 5.00022 510.893C5.30271 498.887 14.4945 489.818 14.5871 489.726C14.5994 489.713 14.6179 489.695 14.6303 489.682H43.113C49.2491 489.682 54.237 484.688 54.237 478.558V462.903C54.237 456.767 49.2429 451.779 43.113 451.779H19.5441C19.9639 448.285 20.3528 445.187 20.6861 442.545C22.5257 428.13 52.0208 418 80.2073 415.432C108.9 412.821 123.931 403.463 179.854 368.646C225.374 340.305 290.285 338.392 342.441 336.848L343.472 336.818C352.652 336.546 363.053 336.237 373.171 336.108C390.271 335.892 404.135 336.219 416.803 337.145C465.743 340.719 515.208 356.553 559.858 382.931C571.205 389.635 582.298 396.826 593.008 404.388C590.496 404.129 587.804 404.216 584.927 404.74C584.835 404.759 584.588 404.802 584.224 404.876C554.438 383.986 509.597 357.072 466.052 348.318C432.612 341.596 397.87 341.497 364.269 341.404L356.01 341.379C324.589 341.275 288.964 341.157 255.16 348.065C239.986 351.164 226.745 355.071 214.689 360.01L212.472 360.911C195.521 367.8 172.298 377.239 176.508 399.894C180.125 419.371 196.015 435.408 223.738 447.557C256.462 461.897 276.988 496.967 288.445 523.863C288.976 525.11 289.488 526.345 289.988 527.579H265.814V527.567ZM22.217 484.571C22.9578 478.454 24.2665 463.015 24.7789 456.891H43.1069C46.4218 456.891 49.1195 459.588 49.1195 462.903V478.558C49.1195 481.873 46.4218 484.571 43.1069 484.571H22.217ZM290.766 527.567C290.229 526.246 289.68 524.919 289.112 523.585C277.605 496.565 256.968 461.329 224.029 446.897C196.533 434.847 180.786 418.988 177.212 399.759C173.113 377.677 196.015 368.362 212.744 361.566L214.96 360.664C226.979 355.744 240.177 351.849 255.308 348.763C289.044 341.873 324.619 341.991 356.01 342.096L364.269 342.12C397.833 342.219 432.538 342.318 465.91 349.022C509.091 357.701 553.562 384.295 583.292 405.092C581.254 405.605 577.643 406.747 574.137 409.012C554.778 395.363 525.542 376.665 495.942 364.874C479.052 358.146 462.052 353.67 446.699 353.67C384.925 353.67 384.925 353.67 384.925 353.67H359.572C357.362 353.608 355.201 353.559 353.084 353.51C351.658 356.17 322.428 410.722 314.175 426.155H373.134H390.277L389.925 426.229C389.962 426.414 390.882 430.982 392.246 438.822C392.709 441.47 393.221 444.495 393.771 447.853C396.833 466.552 400.987 495.559 403.401 527.573H290.766V527.567ZM637.473 527.567H404.123C401.715 495.596 397.573 466.62 394.505 447.884C393.956 444.508 393.437 441.47 392.974 438.804C391.666 431.279 390.764 426.748 390.647 426.155H406.352H463.138H564.636C564.655 427.649 564.815 429.204 565.13 430.809C565.723 433.877 566.964 436.606 568.766 438.946C569.766 442.946 571.958 445.977 574.859 448.181C578.563 450.996 583.421 452.459 588.477 452.872C597.829 453.631 607.823 450.779 612.305 446.174C614.447 443.971 615.385 440.791 615.268 437.285C616.244 435.334 616.762 433.069 616.812 430.63C617.824 431.482 618.423 432.001 618.559 432.118C634.51 453.243 637.825 494.207 637.473 527.567ZM750.571 622.849C726.384 622.849 706.704 603.169 706.704 578.983C706.704 554.796 726.384 535.123 750.571 535.123C774.757 535.123 794.437 554.803 794.437 578.983C794.431 603.169 774.757 622.849 750.571 622.849ZM845.309 527.573C845.272 527.573 845.235 527.573 845.204 527.573H818.209C811.647 515.171 803.307 505.331 793.406 498.306C781.047 489.534 766.152 485.083 749.145 485.083C732.125 485.083 717.372 489.54 705.291 498.325C695.624 505.356 687.611 515.19 681.456 527.579H664.622C669.715 515.288 685.512 485.954 722.44 477.558L724.915 476.997L722.378 476.892C722.267 476.886 711.414 476.515 697.79 482.861C685.592 488.54 668.666 500.905 656.394 527.585H638.251C638.275 525.252 638.288 522.881 638.269 520.486C638.109 491.312 634.646 452.23 619.096 431.674L619.046 431.618C618.972 431.55 618.194 430.877 616.793 429.704C616.719 426.927 616.058 423.97 614.805 421.031C620.627 425.822 626.293 429.729 636.467 430.519C651.406 431.674 666.616 432.902 681.327 434.087C694.241 435.131 707.6 436.205 720.742 437.229C825.389 445.409 846.421 477.447 855.402 491.133C855.73 491.627 856.038 492.102 856.335 492.547C859.903 497.899 861.261 504.881 862.458 511.035C863.674 517.301 864.841 523.301 868.286 526.622C863.872 527.542 854.73 527.98 845.309 527.573Z" fill="#111117"/>
    <path d="M292.717 353.979L252.542 426.155H314.187C322.44 410.716 351.67 356.164 353.096 353.51C325.064 352.88 305.575 353.324 292.717 353.979Z" fill="white"/>
    <path d="M585.804 409.654C585.792 409.654 585.773 409.66 585.761 409.66C585.631 409.679 576.526 411.278 572.075 417.679C569.791 420.969 569.1 425.068 570.026 429.859C571.439 437.174 577.162 440.322 581.705 441.68C591.959 444.736 604.854 441.637 609.54 436.822C611.274 435.038 612.009 432.235 611.762 429.056C611.75 429.995 611.663 430.556 611.663 430.556C607.614 411.753 588.81 410.037 589.526 410.086C595.675 410.494 600.132 411.944 603.367 413.889C599.058 410.426 593.132 408.321 585.804 409.654Z" fill="#EC2526"/>
    <path d="M589.532 410.086C588.822 410.037 607.626 411.753 611.669 430.556C611.669 430.556 611.756 429.995 611.768 429.056C611.811 425.902 611.015 418.494 603.372 413.889C600.138 411.944 595.681 410.5 589.532 410.086Z" fill="white"/>
    <path d="M31.6929 440.489C84.9236 440.507 138.154 440.514 191.385 440.514C191.385 440.514 164.693 431.853 160.402 410.062C159.476 405.598 98.5848 418.364 93.6586 419.327C80.5654 421.883 67.534 424.673 54.4408 427.254C44.8046 429.143 32.5571 429.285 31.6929 440.489Z" fill="white"/>
    <path d="M751.135 589.796C756.426 589.686 760.625 585.305 760.515 580.011C760.405 574.718 756.027 570.516 750.736 570.626C745.446 570.736 741.247 575.116 741.357 580.41C741.467 585.704 745.845 589.906 751.135 589.796Z" fill="white"/>
    <path d="M750.934 565.494C742.829 565.494 736.236 572.087 736.236 580.193C736.236 588.298 742.829 594.891 750.934 594.891C759.04 594.891 765.633 588.298 765.633 580.193C765.627 572.087 759.034 565.494 750.934 565.494ZM750.934 589.773C745.65 589.773 741.354 585.471 741.354 580.186C741.354 574.902 745.65 570.6 750.934 570.6C756.219 570.6 760.515 574.902 760.515 580.186C760.515 585.471 756.219 589.773 750.934 589.773Z" fill="#111117"/>
    <path d="M674.913 441.532C706.655 440.514 770.213 444.143 770.213 444.143C770.213 444.143 746.28 440.569 697.006 438.223C647.732 435.871 631.139 432.303 631.139 432.303C631.139 432.303 643.177 442.551 674.913 441.532Z" fill="white"/>
    <path d="M538.469 419.087C538.846 417.395 539.358 415.296 540.006 413.185C540.062 413 540.123 412.802 540.185 412.611C518.32 416.692 504.282 409.697 498.986 406.265V413.302C504.727 416.352 514.258 419.951 527.24 419.951C530.907 419.963 534.66 419.667 538.469 419.087Z" fill="white"/>
    <path d="M440.106 413.519C439.847 413.71 439.551 413.802 439.248 413.802C438.841 413.802 438.44 413.63 438.162 413.302L425.149 398.259H402.666L407.71 406.284C408.13 406.957 407.932 407.845 407.259 408.265L406.63 408.66C404.648 409.907 402.728 411.228 400.938 412.556V421.852C405.376 421.618 411.352 421.013 419.377 419.76C419.84 418.778 420.445 417.852 421.18 417.013C423.248 414.667 426.1 413.265 429.217 413.068C435.433 412.685 440.798 417.216 441.551 423.303H449.786L450.551 405.759L440.106 413.519Z" fill="white"/>
    <path d="M496.109 398.259H495.282L482.269 413.302C481.985 413.63 481.584 413.802 481.182 413.802C480.886 413.802 480.584 413.71 480.324 413.519L469.879 405.777L470.663 423.315H496.109V398.259Z" fill="white"/>
    <path d="M460.219 395.382H494.072V348.337L485.72 321.718H417.618C418.89 326.317 420.075 331.577 419.877 334.731C419.686 337.824 418.087 339.886 415.605 340.237C415.365 340.274 415.118 340.287 414.877 340.287C412.161 340.287 409.439 338.188 408.334 335.126C408.278 334.966 408.222 334.793 408.179 334.614L403.327 347.429V395.37H425.816H460.219V395.382ZM429.97 357.769C428.464 357.769 427.242 355.948 427.242 353.701C427.242 351.454 428.464 349.633 429.97 349.633C431.477 349.633 432.699 351.454 432.699 353.701C432.699 355.948 431.477 357.769 429.97 357.769ZM485.368 357.769C483.862 357.769 482.639 355.948 482.639 353.701C482.639 351.454 483.862 349.633 485.368 349.633C486.874 349.633 488.096 351.454 488.096 353.701C488.096 355.948 486.874 357.769 485.368 357.769ZM483.386 341.349H487.343C488.133 341.349 488.775 341.991 488.775 342.781C488.775 343.571 488.133 344.213 487.343 344.213H483.386C482.596 344.213 481.954 343.571 481.954 342.781C481.954 341.984 482.596 341.349 483.386 341.349ZM457.805 363.214C461.669 363.214 464.7 368.066 464.7 374.264C464.7 375.06 464.058 375.702 463.262 375.702H452.348C451.552 375.702 450.91 375.06 450.91 374.264C450.91 368.066 453.941 363.214 457.805 363.214ZM427.995 341.349H431.952C432.742 341.349 433.384 341.991 433.384 342.781C433.384 343.571 432.742 344.213 431.952 344.213H427.995C427.205 344.213 426.563 343.571 426.563 342.781C426.563 341.984 427.205 341.349 427.995 341.349Z" fill="#FEF4EE"/>
    <path d="M429.97 349.633C428.464 349.633 427.242 351.454 427.242 353.701C427.242 355.948 428.464 357.769 429.97 357.769C431.476 357.769 432.699 355.948 432.699 353.701C432.699 351.454 431.476 349.633 429.97 349.633Z" fill="#111117"/>
    <path d="M427.995 344.213H431.952C432.742 344.213 433.384 343.571 433.384 342.781C433.384 341.991 432.742 341.349 431.952 341.349H427.995C427.205 341.349 426.562 341.991 426.562 342.781C426.562 343.571 427.205 344.213 427.995 344.213Z" fill="#111117"/>
    <path d="M485.368 349.633C483.861 349.633 482.639 351.454 482.639 353.701C482.639 355.948 483.861 357.769 485.368 357.769C486.874 357.769 488.096 355.948 488.096 353.701C488.096 351.454 486.874 349.633 485.368 349.633Z" fill="#111117"/>
    <path d="M483.386 344.213H487.343C488.133 344.213 488.775 343.571 488.775 342.781C488.775 341.991 488.133 341.349 487.343 341.349H483.386C482.596 341.349 481.954 341.991 481.954 342.781C481.954 343.571 482.596 344.213 483.386 344.213Z" fill="#111117"/>
    <path d="M461.762 372.819C461.392 368.788 459.515 366.084 457.811 366.084C456.107 366.084 454.231 368.782 453.86 372.819H461.762Z" fill="white"/>
    <path d="M452.354 375.702H463.268C464.064 375.702 464.706 375.06 464.706 374.264C464.706 368.066 461.675 363.214 457.811 363.214C453.947 363.214 450.916 368.066 450.916 374.264C450.909 375.054 451.558 375.702 452.354 375.702ZM457.805 366.09C459.509 366.09 461.385 368.788 461.756 372.825H453.854C454.224 368.788 456.101 366.09 457.805 366.09Z" fill="#111117"/>
    <path d="M401.969 342.793L408.747 324.891C409.871 319.304 411.729 313.675 412.075 312.668C412.272 312.088 412.815 311.693 413.427 311.687H413.433C414.044 311.687 414.587 312.07 414.791 312.65C414.877 312.903 415.766 315.446 416.779 318.811H486.782C487.417 318.811 487.979 319.224 488.171 319.829L495.875 344.373C497.332 340.231 499.554 333.132 501.029 324.761C502.869 314.317 503.838 300.007 499.258 287.389V289.704C499.258 292.001 499.258 292.618 498.035 292.822C497.338 292.933 496.652 292.525 496.424 291.853C495.368 288.729 492.93 285.914 490.455 283.34C482.942 275.531 471.009 269.963 459.311 268.808C458.274 268.703 457.225 268.635 456.188 268.605C446.589 268.308 436.286 270.413 426.39 274.685C417.174 278.667 409.05 284.247 402.895 290.822C396.555 297.594 392.426 305.835 388.5 313.878L391.209 312.94C391.747 312.755 392.333 312.897 392.728 313.304C393.123 313.712 393.24 314.304 393.043 314.835L391.265 319.471L394.191 317.15C394.586 316.841 395.105 316.749 395.58 316.922C396.049 317.088 396.407 317.49 396.512 317.977C396.543 318.144 399.722 332.503 401.969 342.793Z" fill="#EC2526"/>
    <path d="M555.272 402.117C557.729 403.895 559.723 407.191 561.494 411.623C561.556 411.092 561.581 410.555 561.544 410.006C561.303 406.228 558.704 403.148 555.272 402.117Z" fill="#FEF4EE"/>
    <path d="M551.883 413.679C551.216 414 550.494 414.228 549.735 414.34C549.321 415.512 548.914 416.852 548.525 418.309C549.969 419.099 551.611 419.476 553.297 419.371C553.537 419.358 553.772 419.327 554.007 419.29C553.204 416.846 552.488 415.031 551.883 413.679Z" fill="#FEF4EE"/>
    <path d="M557.939 422.328H561.939C559.988 415.278 558.118 410.383 556.155 407.352C556.044 409.099 555.334 410.685 554.235 411.914C555.278 414.117 556.537 417.408 557.939 422.328Z" fill="#EC2526"/>
    <path d="M546.74 414.191C545.432 413.858 544.265 413.191 543.327 412.278C543.123 412.877 542.932 413.469 542.753 414.037C541.709 417.42 541.03 420.753 540.74 422.334H544.654C545.173 419.636 545.907 416.722 546.74 414.191Z" fill="#EC2526"/>
    <path d="M565.001 422.605C564.371 420.266 563.729 418.068 563.069 416.031C564.075 414.142 564.55 412.012 564.414 409.821C564.007 403.382 558.439 398.487 552 398.882C551.13 398.938 550.278 399.098 549.463 399.333C549.185 399.302 548.901 399.283 548.611 399.283C544.438 399.283 541.037 402.679 541.037 406.858C541.037 407.426 541.105 407.981 541.228 408.518C541.173 408.845 541.129 409.179 541.098 409.512C516.159 414.679 501.776 404.913 498.992 402.765V396.82C498.992 396.024 498.35 395.382 497.553 395.382H496.948V349.621C496.998 349.547 497.053 349.479 497.084 349.392C497.263 348.972 501.467 338.935 503.875 325.329C506.109 312.693 507.091 294.556 499.072 279.932C498.751 279.352 498.084 279.062 497.436 279.222C496.794 279.389 496.343 279.963 496.343 280.63C496.343 280.63 496.343 283.124 496.343 285.71C495.195 284.155 493.874 282.698 492.541 281.315C484.571 273.031 471.947 267.129 459.589 265.907C458.49 265.796 457.372 265.728 456.267 265.691C446.236 265.382 435.507 267.568 425.229 272.006C415.655 276.142 407.191 281.957 400.765 288.828C393.888 296.174 389.592 304.977 385.437 313.496L384.338 315.749C384.079 316.28 384.166 316.909 384.554 317.354C384.943 317.792 385.561 317.959 386.116 317.767L389.203 316.699L386.647 323.379C386.413 323.99 386.616 324.681 387.147 325.07C387.672 325.459 388.394 325.447 388.906 325.039L394.166 320.866C395.376 326.336 398.475 340.379 400.166 348.195C400.209 348.404 400.308 348.584 400.432 348.744V395.376H399.487C398.691 395.376 398.049 396.018 398.049 396.814V398.314C395.919 399.722 391.802 402.561 387.801 405.926C381.678 411.074 373.893 418.852 377.005 426.896C379.227 432.643 385.616 435.316 397.117 435.316C403.358 435.316 411.42 434.526 421.599 432.921C421.797 433.124 422.001 433.328 422.217 433.519C424.371 435.415 427.087 436.439 429.933 436.439C430.186 436.439 430.439 436.433 430.686 436.415C433.804 436.217 436.662 434.816 438.724 432.47C440.304 430.68 441.267 428.494 441.551 426.173H497.535C498.331 426.173 498.973 425.531 498.973 424.735V416.525C499.516 416.796 500.078 417.068 500.677 417.333C508.714 420.976 517.653 422.821 527.227 422.821C530.703 422.821 534.252 422.556 537.845 422.062C537.771 422.476 537.728 422.741 537.716 422.784C537.66 423.124 537.642 423.47 537.666 423.84C537.709 424.599 538.339 425.198 539.105 425.198H545.839C546.543 425.198 547.142 424.692 547.259 424C547.42 423.044 547.605 422.099 547.809 421.173C549.333 421.877 550.988 422.253 552.698 422.253C552.951 422.253 553.204 422.247 553.457 422.229C553.926 422.198 554.389 422.13 554.846 422.05C555.044 422.71 555.241 423.402 555.445 424.142C555.618 424.766 556.186 425.198 556.834 425.198H563.704C564.093 425.198 564.464 425.044 564.735 424.766C565.007 424.488 565.155 424.112 565.143 423.723C565.149 423.321 565.093 422.957 565.001 422.605ZM548.525 418.309C548.914 416.852 549.327 415.512 549.735 414.34C550.494 414.228 551.216 414 551.883 413.679C552.488 415.031 553.204 416.846 554.006 419.284C553.772 419.315 553.537 419.346 553.297 419.364C551.611 419.476 549.969 419.099 548.525 418.309ZM540.747 422.328C541.043 420.753 541.722 417.42 542.759 414.031C542.932 413.463 543.123 412.876 543.333 412.272C544.271 413.185 545.444 413.852 546.747 414.185C545.907 416.716 545.173 419.63 544.66 422.321H540.747V422.328ZM436.575 430.581C435.02 432.347 432.865 433.402 430.513 433.556C428.167 433.705 425.896 432.933 424.124 431.371C422.359 429.816 421.303 427.661 421.155 425.309C421.007 422.957 421.778 420.685 423.34 418.92C424.896 417.154 427.05 416.099 429.402 415.945C429.593 415.932 429.779 415.926 429.964 415.926C434.575 415.926 438.464 419.525 438.761 424.192C438.909 426.544 438.131 428.815 436.575 430.581ZM389.66 408.136C394.178 404.339 398.858 401.228 400.469 400.178L404.506 406.605C396.407 411.79 388.863 418.401 387.178 421.828C386.999 422.186 386.98 422.605 387.122 422.976C387.264 423.352 387.561 423.649 387.931 423.797C390.536 424.846 397.895 425.939 418.42 422.828C418.278 423.698 418.216 424.587 418.278 425.494C418.389 427.217 418.877 428.846 419.673 430.322C410.346 431.748 402.913 432.451 397.117 432.451C386.968 432.451 381.431 430.359 379.696 425.871C377.252 419.537 384.215 412.716 389.66 408.136ZM395.573 316.922C395.104 316.755 394.58 316.841 394.184 317.15L391.258 319.471L393.036 314.835C393.24 314.31 393.117 313.712 392.721 313.304C392.326 312.897 391.74 312.755 391.203 312.94L388.493 313.878C392.419 305.835 396.549 297.594 402.889 290.822C409.049 284.241 417.173 278.661 426.383 274.685C436.273 270.413 446.576 268.314 456.181 268.605C457.218 268.635 458.268 268.703 459.305 268.808C471.003 269.969 482.935 275.537 490.448 283.34C492.923 285.914 495.362 288.729 496.417 291.853C496.646 292.525 497.331 292.933 498.029 292.822C499.251 292.624 499.251 292.007 499.251 289.704V287.389C503.831 300.007 502.862 314.317 501.023 324.761C499.547 333.126 497.325 340.231 495.868 344.373L488.17 319.829C487.979 319.224 487.417 318.811 486.781 318.811H416.778C415.766 315.446 414.883 312.903 414.79 312.65C414.587 312.076 414.043 311.687 413.432 311.687H413.426C412.815 311.693 412.266 312.082 412.074 312.668C411.735 313.681 409.87 319.311 408.747 324.891L401.969 342.793C399.722 332.503 396.543 318.144 396.506 317.977C396.401 317.49 396.049 317.088 395.573 316.922ZM441.551 423.309C440.798 417.222 435.433 412.691 429.217 413.074C426.099 413.272 423.241 414.673 421.18 417.019C420.439 417.858 419.84 418.784 419.377 419.766C411.352 421.019 405.376 421.624 400.938 421.858V412.562C402.734 411.234 404.648 409.913 406.629 408.666L407.259 408.271C407.932 407.845 408.136 406.963 407.71 406.29L402.666 398.265H425.149L438.162 413.309C438.446 413.636 438.847 413.809 439.248 413.809C439.545 413.809 439.847 413.716 440.106 413.525L450.557 405.777L449.792 423.321H441.551V423.309ZM398.055 421.969C394.493 422.044 392.215 421.834 390.789 421.587C392.221 419.827 394.814 417.371 398.055 414.778V421.969ZM467.361 422.846H453.088L453.946 403.253L459.453 399.172H460.984L466.49 403.253L467.361 422.846ZM455.854 398.259L439.458 410.407L428.945 398.259H455.854ZM464.577 398.259H491.479L480.972 410.407L464.577 398.259ZM413.469 317.854C415.006 322.774 417.241 330.694 417 334.558C416.939 335.534 416.624 337.194 415.192 337.398C413.821 337.589 411.84 336.41 411.031 334.163C410.08 331.515 411.71 323.953 413.469 317.854ZM403.321 347.441L408.173 334.626C408.216 334.805 408.272 334.978 408.327 335.138C409.432 338.2 412.154 340.299 414.871 340.299C415.118 340.299 415.358 340.281 415.599 340.25C418.081 339.892 419.679 337.836 419.871 334.743C420.068 331.589 418.889 326.329 417.611 321.73H485.707L494.059 348.349V395.394H460.206H425.797H403.308V347.441H403.321ZM470.663 423.309L469.879 405.771L480.324 413.512C480.583 413.704 480.88 413.796 481.182 413.796C481.59 413.796 481.991 413.623 482.269 413.296L495.282 398.252H496.109V423.303H470.663V423.309ZM498.985 406.271C504.282 409.704 518.326 416.698 540.185 412.617C540.123 412.809 540.061 413 540.006 413.191C539.358 415.303 538.839 417.401 538.469 419.093C534.66 419.667 530.907 419.963 527.246 419.963C514.258 419.963 504.733 416.358 498.992 413.315V406.271H498.985ZM561.494 411.623C559.723 407.191 557.729 403.895 555.272 402.117C558.704 403.148 561.303 406.228 561.544 410.006C561.575 410.555 561.556 411.092 561.494 411.623ZM543.92 406.864C543.92 404.277 546.025 402.172 548.611 402.172C551.198 402.172 553.303 404.277 553.303 406.864C553.303 409.45 551.198 411.555 548.611 411.555C546.025 411.555 543.92 409.45 543.92 406.864ZM554.235 411.914C555.34 410.685 556.044 409.099 556.155 407.352C558.118 410.383 559.988 415.284 561.939 422.328H557.939C556.537 417.408 555.278 414.117 554.235 411.914Z" fill="#111117"/>
    <path d="M548.612 411.555C551.198 411.555 553.303 409.45 553.303 406.864C553.303 404.277 551.198 402.172 548.612 402.172C546.025 402.172 543.92 404.277 543.92 406.864C543.92 409.45 546.025 411.555 548.612 411.555Z" fill="#FEF4EE"/>
    <path d="M459.453 399.178L453.946 403.259L453.088 422.846H467.361L466.49 403.259L460.984 399.178H459.453Z" fill="#EC2526"/>
    <path d="M397.123 432.445C402.913 432.445 410.352 431.742 419.68 430.316C418.883 428.846 418.396 427.21 418.285 425.488C418.229 424.587 418.285 423.692 418.427 422.821C397.895 425.933 390.543 424.84 387.938 423.791C387.567 423.642 387.271 423.346 387.129 422.97C386.987 422.593 387.005 422.179 387.184 421.821C388.87 418.395 396.413 411.784 404.512 406.598L400.475 400.172C398.858 401.222 394.179 404.333 389.666 408.129C384.215 412.71 377.252 419.531 379.703 425.859C381.437 430.353 386.968 432.445 397.123 432.445Z" fill="white"/>
    <path d="M429.964 415.932C429.779 415.932 429.588 415.938 429.402 415.951C427.05 416.099 424.896 417.154 423.34 418.926C421.785 420.692 421.007 422.963 421.155 425.315C421.303 427.667 422.359 429.822 424.124 431.377C425.89 432.933 428.168 433.705 430.514 433.563C432.865 433.414 435.02 432.359 436.575 430.587C438.131 428.822 438.909 426.55 438.761 424.198C438.464 419.531 434.575 415.932 429.964 415.932Z" fill="#FEF4EE"/>
    <path d="M415.192 337.392C416.624 337.188 416.939 335.527 417 334.552C417.241 330.688 415.006 322.768 413.469 317.848C411.71 323.947 410.074 331.515 411.031 334.151C411.846 336.404 413.821 337.583 415.192 337.392Z" fill="white"/>
    <path d="M439.464 410.407L455.854 398.259H428.952L439.464 410.407Z" fill="white"/>
    <path d="M480.972 410.407L491.479 398.259H464.577L480.972 410.407Z" fill="white"/>
</svg>
