<svg width="175" height="35" viewBox="0 0 175 35" fill="none" xmlns="http://www.w3.org/2000/svg">
<path d="M1.33791 34.6251C-0.196526 33.7309 -0.465895 31.5498 0.815531 30.3027C1.42161 29.5928 2.34612 29.3377 3.20714 29.0943C23.3848 22.6228 43.8963 17.2618 64.4087 11.988C73.6692 9.66341 82.975 7.50658 92.3557 5.73573C66.2568 6.46987 40.0905 7.00907 14.1608 10.3258C10.4339 10.8039 6.71278 11.3809 2.99934 11.9347C2.04789 12.1219 1.03103 12.278 0.210413 12.824C0.206565 12.8366 0.202717 12.8492 0.197907 12.8608C0.200793 12.8637 0.203679 12.8686 0.206565 12.8715C0.210413 12.8744 0.215223 12.8773 0.219071 12.8802C0.220995 12.8812 0.219071 12.8831 0.218109 12.8822C0.186362 12.8637 0.189248 12.8589 0.202717 12.8182C0.245046 12.7736 0.290262 12.7328 0.339325 12.696C0.858822 12.3604 1.41872 12.1248 1.97093 11.859C3.6237 11.0231 5.30437 10.224 7.08413 9.6993C7.97786 9.41708 8.86389 9.10869 9.75954 8.83618C11.5335 8.38425 13.294 7.87316 15.0757 7.45518C17.1479 7.02653 19.2173 6.57363 21.2914 6.15565C23.9437 5.72506 26.5912 5.2615 29.2464 4.85515C38.7273 3.54204 48.26 2.67407 57.8092 2.0631C78.362 0.947831 98.9418 0.0449486 119.527 0.00130762C124.314 -0.01033 129.1 0.0565862 133.886 0.167143C136.79 0.241818 139.693 0.353345 142.599 0.332009C143.813 0.335888 145.028 0.340737 146.24 0.42414C146.594 0.448385 146.92 0.495905 147.251 0.636526C148.987 1.35321 149.476 3.75443 148.084 5.08402C147.136 6.07128 145.719 5.85113 144.483 5.85404C142.792 5.81331 141.102 5.75221 139.41 5.80652C129.336 5.97915 119.297 7.0275 109.327 8.44923C84.8278 11.892 60.8915 18.3887 37.0466 24.8776C52.5873 22.8168 68.1606 20.9975 83.7773 19.632C110.359 17.3898 137.061 16.7391 163.724 16.2299C167.481 16.2028 171.251 16.1979 175 16.3337C171.198 16.5742 167.403 16.9262 163.611 17.2938C135.188 20.2352 106.777 23.2774 78.2985 25.6263C57.1665 27.6144 36.1298 30.4792 15.1017 33.3498C11.6807 33.823 8.2655 34.337 4.84356 34.8045C4.12396 34.9063 3.40147 34.9887 2.67418 34.9984C2.21336 35.0178 1.72754 34.8539 1.33791 34.6251Z" fill="#EC2526"/>
</svg>
