<svg width="104" height="20" viewBox="0 0 104 20" fill="none" xmlns="http://www.w3.org/2000/svg">
<path d="M14.0008 2.03114C13.7778 1.91383 13.5145 1.89325 13.2613 1.89325C11.0268 1.88296 8.94691 3.18981 7.44981 4.88769C5.48049 7.1186 4.32903 10.0904 4.26674 13.0972C3.96933 13.1157 3.76436 12.8029 3.64379 12.523C2.95653 10.928 2.84601 9.07785 3.34035 7.40879C3.42274 7.12684 3.42877 6.69053 3.14141 6.67818C3.01079 6.67201 2.90228 6.77697 2.81386 6.87575C0.949027 8.98936 0.348181 12.1896 1.31476 14.8609C3.55738 21.0556 12.337 21.7039 15.3171 15.7871C16.5047 13.4306 16.4384 10.6276 16.0827 8.0015C15.8355 6.17602 15.4537 4.33614 14.5876 2.72058C14.453 2.46744 14.2962 2.21224 14.0551 2.06407C14.039 2.05172 14.0189 2.03937 14.0008 2.03114Z" fill="white"/>
<path d="M27.3029 4.13037C22.9081 4.13037 19.709 7.49114 19.709 12.0785C19.709 16.7214 22.88 19.969 27.4416 19.969C29.7505 19.969 31.5591 19.2281 33.006 17.7175C33.4501 17.2339 33.4782 16.777 33.4782 16.6062C33.4782 15.8653 32.9216 15.2952 32.17 15.2952C31.7802 15.2952 31.4747 15.4372 31.113 15.7789C30.279 16.5486 29.222 17.3738 27.4135 17.3738C24.9096 17.3738 22.88 15.466 22.7675 12.9861H32.6985C33.7836 12.9861 34.3121 12.4737 34.3121 11.4199C34.3121 11.1071 34.3121 10.8787 34.2559 10.4238C33.7274 6.49506 31.113 4.13037 27.3029 4.13037ZM27.3029 6.6103C29.6943 6.6103 31.2255 8.17647 31.3079 10.6852H22.7956C23.0187 8.34729 24.9377 6.6103 27.3029 6.6103Z" fill="white"/>
<path d="M43.7971 4.13049C41.7937 4.13049 39.8183 5.29946 39.0406 6.95V5.95186C39.0406 4.38569 37.845 4.29925 37.6219 4.29925C36.9266 4.29925 36.175 4.72732 36.175 5.95186V18.1457C36.175 19.7695 37.427 19.856 37.6782 19.856C37.9294 19.856 39.1813 19.7695 39.1813 18.1457V11.6217C39.1813 8.77342 40.7668 6.77919 43.0195 6.77919C45.1897 6.77919 46.2749 8.23216 46.2749 11.2513V18.1457C46.2749 19.7695 47.5268 19.856 47.778 19.856C48.0292 19.856 49.2811 19.7695 49.2811 18.1457V10.284C49.3032 7.2937 47.8584 4.13049 43.7971 4.13049Z" fill="white"/>
<path d="M62.9909 4.27197C62.2956 4.27197 61.7953 4.70004 61.4878 5.4965L57.3422 16.151L53.2267 5.49856C52.8931 4.67329 52.3927 4.27403 51.6975 4.27403C50.8635 4.27403 50.1943 4.92849 50.1943 5.75582C50.1943 5.95545 50.2225 6.21064 50.3893 6.63871L55.1458 18.1473C55.7024 19.5426 56.6489 19.8287 57.3161 19.8287C58.0114 19.8287 58.9297 19.5447 59.4863 18.1473L64.271 6.58109C64.4378 6.18183 64.4659 5.86901 64.4659 5.727C64.4941 4.89967 63.853 4.27197 62.9909 4.27197Z" fill="white"/>
<path d="M71.7797 4.13037C69.8325 4.13037 68.0521 4.67163 66.7177 5.69654C66.2736 6.00936 66.0506 6.40862 66.0506 6.92107C66.0506 7.60434 66.5791 8.1456 67.2181 8.1456C67.4954 8.1456 67.831 8.03241 68.1083 7.83278C69.2497 7.03426 70.3329 6.69263 71.5024 6.69263C73.7269 6.69263 75.0351 7.86159 75.0351 9.88258V10.2242C70.0274 10.2242 64.9092 10.8519 64.9092 15.324C64.9092 18.5428 67.608 19.9958 70.2505 19.9958C72.3645 19.9958 74.0605 19.1417 75.1457 17.5179V18.2876C75.1457 19.4566 75.8972 19.8538 76.5644 19.8538C76.703 19.8538 77.9268 19.7961 77.9268 18.2876V10.0843C77.9288 6.35305 75.648 4.13037 71.7797 4.13037ZM74.3961 12.4778H75.0351V13.1898C75.0351 15.8118 73.4215 17.4911 70.8895 17.4911C70.1942 17.4911 67.9958 17.3203 67.9958 15.2397C67.9978 12.7638 71.6411 12.4778 74.3961 12.4778Z" fill="white"/>
<path d="M85.829 7.09381C87.1634 7.09381 87.2196 6.04009 87.2196 5.84046C87.2196 5.21276 86.8579 4.52949 85.829 4.52949H83.1021V1.70998C83.1021 0.45664 82.2963 -0.000244141 81.6271 -0.000244141C81.3759 -0.000244141 80.124 0.0861935 80.124 1.70998V15.0996C80.124 18.1763 81.599 19.8289 84.4364 19.8289C85.1599 19.8289 85.8833 19.6869 86.3274 19.4873C86.8559 19.2033 87.1613 18.7752 87.1613 18.2628C87.1613 17.5507 86.661 17.0382 85.9657 17.0382C85.827 17.0382 85.6321 17.0671 85.4372 17.1247C85.186 17.1823 84.9931 17.2111 84.7982 17.2111C83.6568 17.2111 83.1282 16.4414 83.1282 14.7888V7.09381H85.829Z" fill="white"/>
<path d="M95.8162 4.13049C91.2546 4.13049 87.9167 7.46451 87.9167 12.021C87.9167 14.2437 88.7226 16.2667 90.1694 17.7465C91.6163 19.1994 93.6198 19.998 95.788 19.998C100.295 19.998 103.716 16.5796 103.716 12.0498C103.744 7.46451 100.406 4.13049 95.8162 4.13049ZM95.8162 17.3493C92.6733 17.3493 91.0315 14.6718 91.0315 12.021C91.0315 8.37417 93.5072 6.72156 95.8162 6.72156C98.1251 6.72156 100.601 8.37417 100.601 12.021C100.601 15.6967 98.1251 17.3493 95.8162 17.3493Z" fill="white"/>
</svg>
