<svg width="1920" height="307" viewBox="0 0 1920 307" fill="none" xmlns="http://www.w3.org/2000/svg">
<g clip-path="url(#clip0_618_12078)">
<rect width="1920" height="307" transform="translate(0 -0.000976562)" fill="#F5F5F5"/>
<g style="mix-blend-mode:color-burn">
<path d="M1733.43 199.196L2066.3 -310.527H1400.62L1733.43 199.196Z" fill="black" fill-opacity="0.05"/>
<path d="M1857.26 227.538L2056.7 -77.916H1657.82L1857.26 227.538Z" fill="black" fill-opacity="0.05"/>
<path d="M1998.87 205.252L1857.75 421.396H2140L1998.87 205.252Z" fill="black" fill-opacity="0.05"/>
<path d="M1001.61 46.3472L1196.29 -251.762H806.932L1001.61 46.3472Z" fill="black" fill-opacity="0.05"/>
<path d="M945.361 77.0156L612 587.474H1278.66L945.361 77.0156Z" fill="black" fill-opacity="0.05"/>
<path d="M797.149 120.05L635.385 367.78H958.914L797.149 120.05Z" fill="black" fill-opacity="0.05"/>
<path d="M1324.72 -363L1320.04 -359.888L1766.56 315.226L1771.24 312.114L1324.72 -363Z" fill="black" fill-opacity="0.05"/>
<path d="M991.221 217.172L986.516 220.249L1159.09 485.398L1163.79 482.32L991.221 217.172Z" fill="black" fill-opacity="0.05"/>
<path d="M1911.55 215.127L1720.02 514.01L1724.74 517.054L1916.28 218.171L1911.55 215.127Z" fill="black" fill-opacity="0.05"/>
<path d="M1190.3 -328.168L944.6 51.7207L949.314 54.7843L1195.01 -325.105L1190.3 -328.168Z" fill="black" fill-opacity="0.05"/>
<path d="M1386.02 678.683L1012.47 93.9736L1304.68 -330.112L1685.61 261.453L1386.02 678.683Z" fill="black" fill-opacity="0.05"/>
<path d="M1900.91 -141.544L1725.36 119.936L1727.89 121.644L1903.44 -139.835L1900.91 -141.544Z" fill="black" fill-opacity="0.05"/>
<path d="M1887.84 -161.932L1712.29 99.5479L1714.83 101.257L1890.37 -160.223L1887.84 -161.932Z" fill="black" fill-opacity="0.05"/>
<path d="M1874.75 -182.389L1699.24 79.1221L1701.77 80.8305L1877.29 -180.68L1874.75 -182.389Z" fill="black" fill-opacity="0.05"/>
<path d="M1861.69 -202.773L1686.17 58.7383L1688.71 60.4467L1864.22 -201.064L1861.69 -202.773Z" fill="black" fill-opacity="0.05"/>
<path d="M966.609 224.186L791.062 485.665L793.596 487.374L969.142 225.894L966.609 224.186Z" fill="black" fill-opacity="0.05"/>
<path d="M953.535 203.789L777.988 465.269L780.521 466.977L956.068 205.498L953.535 203.789Z" fill="black" fill-opacity="0.05"/>
<path d="M940.472 183.369L764.957 444.88L767.49 446.588L943.005 185.077L940.472 183.369Z" fill="black" fill-opacity="0.05"/>
<path d="M927.408 162.984L751.893 424.495L754.426 426.204L929.941 164.693L927.408 162.984Z" fill="black" fill-opacity="0.05"/>
</g>
<rect x="439.225" y="-10.2109" width="101.498" height="650.073" transform="rotate(-42.1243 439.225 -10.2109)" fill="#EC2526"/>
<rect x="306.002" y="-15.0166" width="63.9609" height="516.787" transform="rotate(-42.1243 306.002 -15.0166)" fill="url(#paint0_linear_618_12078)"/>
</g>
<defs>
<linearGradient id="paint0_linear_618_12078" x1="337.982" y1="-15.0166" x2="337.982" y2="501.77" gradientUnits="userSpaceOnUse">
<stop stop-color="#D2D2D2"/>
<stop offset="1" stop-color="white" stop-opacity="0"/>
</linearGradient>
<clipPath id="clip0_618_12078">
<rect width="1920" height="307" fill="white" transform="translate(0 -0.000976562)"/>
</clipPath>
</defs>
</svg>
